<svg width="1024" height="1024" viewBox="0 0 1024 1024" fill="none" xmlns="http://www.w3.org/2000/svg">
  <g transform="translate(512 512) scale(1.34) translate(-512 -512) translate(0 40)">
    <g transform="translate(512 512) rotate(-14) translate(-512 -512)">
    <path
      d="M300 202C300 173.281 323.281 150 352  150H684C712.719 150 736 173.281 736 202V712L646 802H352C323.281 802 300 778.719 300 750V202Z"
      fill="#FDFCF9"
    />
    <path
      d="M300 202C300 173.281 323.281 150 352 150H684C712.719 150 736 173.281 736 202V712L646 802H352C323.281 802 300 778.719 300 750V202Z"
      stroke="#DED7CA"
      stroke-width="12"
      stroke-linejoin="round"
    />

    <path
      d="M645 796V758C640 729.281 663.281 706 692 710H730"
      fill="#E4DCCD"
    />
    <path
      d="M639 796V758C640 729.281 663.281 706 692 704H730"
      stroke="#CFC5B6"
      stroke-width="12"
      stroke-linejoin="round"
    />

    <path d="M392 332H626" stroke="#CDC6BA" stroke-width="18" stroke-linecap="round"/>
    <path d="M392 398H590" stroke="#D5CEC2" stroke-width="18" stroke-linecap="round"/>
    <path d="M392 464H648" stroke="#D8D1C5" stroke-width="18" stroke-linecap="round"/>
    <path d="M392 530H564" stroke="#DDD6CB" stroke-width="18" stroke-linecap="round"/>
    <path d="M392 596H620" stroke="#E1DBD1" stroke-width="18" stroke-linecap="round"/>

    </g>
  </g>
</svg>
